<?xml version="1.0" standalone="no"?><!DOCTYPE svg PUBLIC "-//W3C//DTD SVG 1.1//EN" "http://www.w3.org/Graphics/SVG/1.1/DTD/svg11.dtd"><svg t="1756994533092" class="icon" viewBox="0 0 1233 1024" version="1.1" xmlns="http://www.w3.org/2000/svg" p-id="23839" xmlns:xlink="http://www.w3.org/1999/xlink" width="308.25" height="256"><path d="M52.129927 606.743147h406.481428a52.121927 52.121927 0 0 0 0-104.243854H177.96875l57.967918-57.968918a52.121927 52.121927 0 0 0-73.716896-73.716896L15.277979 517.755272a52.121927 52.121927 0 0 0 36.850948 88.987875z m819.541847 252.031645l0.829999-0.957998c0.339-0.408999 0.648999-0.830999 0.972999-1.239999l0.576999-0.745999c0.339-0.450999 0.662999-0.915999 0.986998-1.409998l0.478-0.689999c0.324-0.477999 0.619999-0.956999 0.929998-1.407998l0.437-0.703999c0.282-0.479999 0.562999-0.957999 0.830999-1.409998l0.436999-0.787998c0.24-0.449999 0.478999-0.915999 0.703999-1.408999l0.464999-0.929998c0.197-0.421999 0.379999-0.844999 0.578-1.266998s0.324-0.732999 0.478999-1.099999 0.295-0.759999 0.449999-1.139998 0.324-0.859999 0.48-1.281998 0.225-0.661999 0.336999-0.999999 0.324-0.957999 0.465-1.408998 0.17-0.591999 0.253999-0.901999c0.14-0.519999 0.296-1.041999 0.422-1.576998 0-0.282 0.127-0.563999 0.197999-0.830998 0.126-0.549999 0.253-1.099998 0.366-1.648998 0-0.281 0.099-0.562999 0.155-0.858999 0.098-0.549999 0.197-1.084998 0.281999-1.633998 0-0.324 0.084-0.661999 0.126-0.985998s0.127-1.013999 0.184-1.521998 0-0.886999 0.098-1.323998 0-0.802999 0.084999-1.210999q0.126-2.577996 0-5.155992c0-0.408999 0-0.802999-0.084999-1.211999s0-0.886999-0.098-1.323998-0.113-1.013999-0.184-1.520998-0.07-0.661999-0.126-0.985998a56.312921 56.312921 0 0 0-0.281999-1.633998c0-0.282-0.099-0.577999-0.155-0.859999-0.113-0.549999-0.24-1.097998-0.366-1.647997 0-0.282-0.127-0.562999-0.197999-0.830999-0.126-0.534999-0.281-1.056999-0.422-1.577998l-0.253999-0.900999c-0.084-0.296-0.31-0.971999-0.465-1.408998s-0.225-0.661999-0.337999-0.999998-0.324-0.859999-0.479-1.281999-0.296-0.759999-0.449999-1.140998-0.31-0.732999-0.479999-1.098998-0.379999-0.844999-0.577-1.267999l-0.464999-0.929998c-0.225-0.463999-0.464999-0.914999-0.703999-1.407998l-0.436999-0.789999a23.119967 23.119967 0 0 0-0.830999-1.407998l-0.437-0.703999a20.300971 20.300971 0 0 0-0.929998-1.408998l-0.478-0.689999c-0.324-0.464999-0.647999-0.929999-0.986998-1.408998l-0.576999-0.745999c-0.324-0.408999-0.633999-0.831999-0.971999-1.239998l-0.830999-0.957999c-0.282-0.324-0.549999-0.647999-0.830999-0.957999q-0.802999-0.886999-1.662997-1.746997l-0.112-0.127-0.127-0.112q-0.859999-0.845999-1.746997-1.662998l-0.957999-0.829998-0.957999-0.831999c-0.407999-0.338-0.829999-0.647999-1.239998-0.971999l-0.745999-0.576999c-0.449999-0.338-0.915999-0.661999-1.408998-0.985999l-0.689999-0.479999c-0.478999-0.323-0.957999-0.619999-1.408998-0.929999l-0.703999-0.435999-1.408998-0.830999-0.788999-0.436999-1.407998-0.703999-0.929999-0.465-1.267998-0.577999-1.098998-0.477999-1.139999-0.451-1.282998-0.479999-0.999999-0.336999-1.408998-0.465-0.900998-0.253999-1.577998-0.422-0.830999-0.198-1.647998-0.365999-0.859998-0.155-1.633998-0.281999-0.985999-0.126-1.520998-0.183-1.323998-0.1-1.211998-0.084H54.833923a52.121927 52.121927 0 1 0 0 104.244854h651.540084l-57.967919 57.967918a52.121927 52.121927 0 0 0 73.716897 73.717896l146.942793-147.125793 0.112-0.126999q0.845999-0.844999 1.662997-1.745998c0.281-0.31 0.562999-0.647999 0.829999-0.957999z m261.215633-757.348935a346.189513 346.189513 0 0 0-489.581312 489.554312 346.189513 346.189513 0 0 0 489.581312-489.553312zM888.098751 588.135173c-133.404812 0-241.94566-108.469847-241.94566-241.94466s108.539847-241.94566 241.94466-241.94566 241.94566 108.469847 241.94566 241.94566-108.540847 241.94466-241.94566 241.94466z" p-id="23840"></path><path d="M931.76669 301.335576V200.430718a43.669939 43.669939 0 1 0-87.339877 0v144.589797a43.669939 43.669939 0 0 0 43.669938 43.669938h144.575797a43.669939 43.669939 0 0 0 0-87.339877z" p-id="23841"></path></svg>