<?xml version="1.0" standalone="no"?><!DOCTYPE svg PUBLIC "-//W3C//DTD SVG 1.1//EN" "http://www.w3.org/Graphics/SVG/1.1/DTD/svg11.dtd"><svg t="1756992971074" class="icon" viewBox="0 0 1024 1024" version="1.1" xmlns="http://www.w3.org/2000/svg" p-id="6100" xmlns:xlink="http://www.w3.org/1999/xlink" width="200" height="200"><path d="M512 960c-246.976 0-448-200.96-448-448s201.024-448 448-448 448 200.96 448 448-201.024 448-448 448zM512 125.76A386.688 386.688 0 0 0 125.76 512 386.688 386.688 0 0 0 512 898.24 386.688 386.688 0 0 0 898.24 512 386.688 386.688 0 0 0 512 125.76z m169.984 352.64V416.64H584l82.304-82.304-43.712-43.648L513.28 400 403.904 290.688l-43.712 43.648L442.496 416.64h-100.48v61.76h139.072v61.888H342.016v61.76h139.072v131.328h61.824V602.048h139.072v-61.76H542.912v-61.888h139.072z" fill="#333333" p-id="6101"></path></svg>