<?xml version="1.0" standalone="no"?><!DOCTYPE svg PUBLIC "-//W3C//DTD SVG 1.1//EN" "http://www.w3.org/Graphics/SVG/1.1/DTD/svg11.dtd"><svg t="1756994498195" class="icon" viewBox="0 0 1024 1024" version="1.1" xmlns="http://www.w3.org/2000/svg" p-id="21819" xmlns:xlink="http://www.w3.org/1999/xlink" width="256" height="256"><path d="M388.520558 256.983468h246.968884c76.419654 0 134.719391-165.729251 134.719391-165.729251 0-49.629776-4.969978-87.179606-89.829594-89.829593-84.829616-2.669988-105.159525 59.319732-166.129249 59.319731-62.489717 0-93.749576-48.73978-170.639229-59.319731-76.869652-10.639952-89.809594 40.199818-89.809594 89.829593 0 0.01 58.269737 165.729251 134.719391 165.729251zM642.239411 308.213236H381.790589c-288.408696 0-359.238376 566.607438-359.238376 566.607439 0 74.429663 60.319727 149.179325 134.719391 149.179325h709.466792c74.399664 0 134.709391-74.749662 134.709391-149.179325 0 0.01-70.84968-566.607438-359.208376-566.607439z m-91.759585 606.517258l-72.689671-35.849838c31.829856-40.459817 68.409691-89.099597 98.819553-131.609405H346.19075v-76.299655H521.499957c-20.909905-20.479907-47.509785-43.529803-68.419691-60.939724l44.659798-47.109787c28.979869 22.0199 73.159669 55.819748 94.069575 78.349645l-26.59988 29.699866h70.309683l11.879946-3.579984 55.109751 27.649875c-43.229805 68.109692-101.65954 150.559319-152.029313 219.689007z m135.409388-252.978856c-56.539744-33.289849-119.249461-84.499618-169.129236-138.779373-52.259764 60.939724-114.96948 109.589504-179.589188 145.94934-11.399948-21.509903-33.25985-50.699771-53.689757-70.159682 82.669626-37.379831 168.17924-99.859548 215.219027-181.279181l69.369686 35.329841c-3.329985 5.119977-6.64997 10.239954-9.979954 15.35993 46.559789 47.109787 119.249461 95.759567 182.439175 124.439438-18.059918 16.399926-42.289809 48.149782-54.639753 69.139687z" p-id="21820"></path></svg>