<?xml version="1.0" standalone="no"?><!DOCTYPE svg PUBLIC "-//W3C//DTD SVG 1.1//EN" "http://www.w3.org/Graphics/SVG/1.1/DTD/svg11.dtd"><svg t="1758504732386" class="icon" viewBox="0 0 1024 1024" version="1.1" xmlns="http://www.w3.org/2000/svg" p-id="2302" xmlns:xlink="http://www.w3.org/1999/xlink" width="200" height="200"><path d="M749.6 191.3H276.4c-42.5 0-77.3 34.8-77.3 77.3v489.3c0 42.5 34.8 77.3 77.3 77.3h473.2c42.5 0 77.3-34.8 77.3-77.3V268.6c0-42.5-34.8-77.3-77.3-77.3zM288.8 311c0-11.9 9.6-21.5 21.5-21.5h31.5c11.9 0 21.5 9.6 21.5 21.5s-9.6 21.5-21.5 21.5h-31.5c-11.9 0-21.5-9.6-21.5-21.5z m171 209.8c13.1 0 23.6 10.6 23.6 23.6v2.8c0 13.1-10.6 23.6-23.6 23.6h-40.5v45.4h40.5c13.1 0 23.6 10.6 23.6 23.6v2.8c0 13.1-10.6 23.6-23.6 23.6h-40.5v60.7c0 13.1-10.6 23.6-23.6 23.6h-2.8c-13.1 0-23.6-10.6-23.6-23.6v-60.7h-40.5c-13.1 0-23.6-10.6-23.6-23.6V640c0-13.1 10.6-23.6 23.6-23.6h40.5V571h-40.5c-13.1 0-23.6-10.6-23.6-23.6v-2.8c0-13.1 10.6-23.6 23.6-23.6H349l-22-22.3c-9.2-9.2-9.2-24.2 0-33.4l2-2c9.2-9.2 24.2-9.2 33.4 0l40 40 40-40c9.2-9.2 24.2-9.2 33.4 0l2 2c9.2 9.2 9.2 24.2 0 33.4l-22.1 22.1h4.1z m23.7-188.3h-70.1c-11.9 0-21.5-9.6-21.5-21.5s9.6-21.5 21.5-21.5h70.1c11.9 0 21.5 9.6 21.5 21.5s-9.7 21.5-21.5 21.5z m285.3 407.7c0 28.4-23.1 51.5-51.5 51.5s-51.5-23.1-51.5-51.5V289.5c0-28.4 23.1-51.5 51.5-51.5s51.5 23.1 51.5 51.5v450.7z" fill="#1A1A1A" p-id="2303"></path></svg>