<?xml version="1.0" standalone="no"?><!DOCTYPE svg PUBLIC "-//W3C//DTD SVG 1.1//EN" "http://www.w3.org/Graphics/SVG/1.1/DTD/svg11.dtd"><svg t="1756993201503" class="icon" viewBox="0 0 1024 1024" version="1.1" xmlns="http://www.w3.org/2000/svg" p-id="10016" xmlns:xlink="http://www.w3.org/1999/xlink" width="200" height="200"><path d="M927.36 170.602667H96.170667c-17.685333 0-31.978667-14.293333-31.978667-31.957334C64.213333 120.938667 78.506667 106.666667 96.170667 106.666667H927.36c17.685333 0 31.957333 14.293333 31.957333 31.978666 0 17.664-14.293333 31.957333-31.957333 31.957334z m0 191.808H96.170667c-17.685333 0-31.978667-14.293333-31.978667-31.957334 0-17.706667 14.293333-31.978667 31.978667-31.978666H927.36c17.685333 0 31.957333 14.293333 31.957333 31.978666 0 17.685333-14.293333 31.957333-31.957333 31.957334zM463.914667 554.24H96.362667c-17.685333 0-31.957333-14.293333-31.957334-31.978667 0-17.685333 14.293333-31.978667 31.957334-31.978666h367.552a32 32 0 0 1 0 63.936z m-66.56 191.786667H96.192c-17.685333 0-31.978667-14.272-31.978667-31.957334s14.293333-31.957333 31.978667-31.957333h301.098667c17.706667 0 31.978667 14.293333 31.978666 31.957333a31.850667 31.850667 0 0 1-31.872 31.978667z m66.453333 191.829333H96.170667c-17.685333 0-31.978667-14.293333-31.978667-31.978667 0-17.664 14.293333-31.957333 31.978667-31.957333H463.786667c17.685333 0 31.978667 14.293333 31.978666 31.957333 0 17.706667-14.293333 31.978667-31.978666 31.978667z" fill="#000000" p-id="10017"></path><path d="M816.768 770.133333h-50.645333v63.317334c0 13.888-11.392 25.386667-25.386667 25.386666-13.866667 0-25.386667-11.392-25.386667-25.386666V770.133333h-50.645333c-13.866667 0-25.365333-11.392-25.365333-25.386666 0-13.866667 11.392-25.365333 25.386666-25.365334h50.645334v-22.186666l-62.037334-65.813334c-9.493333-10.794667-9.493333-27.285333 0-37.376a23.872 23.872 0 0 1 34.858667 0l52.544 55.744 53.248-55.744c9.493333-10.090667 25.386667-10.773333 34.858667 0 9.493333 10.794667 9.493333 27.285333 0 37.376l-62.72 65.834667v22.186667h50.645333c13.866667 0 25.386667 11.370667 25.386667 25.365333 0 13.973333-11.413333 25.386667-25.386667 25.386667z" fill="#000000" p-id="10018"></path></svg>