<?xml version="1.0" standalone="no"?><!DOCTYPE svg PUBLIC "-//W3C//DTD SVG 1.1//EN" "http://www.w3.org/Graphics/SVG/1.1/DTD/svg11.dtd"><svg t="1756994687693" class="icon" viewBox="0 0 1024 1024" version="1.1" xmlns="http://www.w3.org/2000/svg" p-id="30840" xmlns:xlink="http://www.w3.org/1999/xlink" width="256" height="256"><path d="M667.8016 376.3712c27.5456-30.0032 60.0576-75.0592 60.0576-122.624 0-27.5456-7.5264-50.0224-25.0368-67.584-32.512-32.512-90.112-32.512-155.136-32.512h-47.5648c-60.0576 0-110.08-2.56-142.6432 30.0032-17.5616 17.5616-25.088 40.0896-25.088 70.144 0 67.5328 60.1088 127.5904 87.6544 150.1184 10.0352 10.0352 27.5456 7.5264 35.072-2.5088 9.984-9.984 7.4752-27.5456-2.56-35.0208-42.496-37.5296-70.0416-80.0768-70.0416-112.64 0-25.0368 7.5264-32.512 9.984-35.0208 17.5616-15.0528 60.1088-15.0528 107.6224-15.0528h52.5824c52.5312 0 102.6048 0 120.1152 17.5104 0 2.5088 7.5264 10.0352 7.5264 32.5632 0 30.0032-27.5456 72.5504-72.6016 110.08-7.4752 5.0176-9.984 15.0528-7.4752 22.528a38.912 38.912 0 0 0 15.0528 20.0192c92.5696 35.072 190.1568 130.1504 190.1568 260.3008 0 122.624-75.0592 167.68-275.2512 167.68s-275.2512-45.056-275.2512-167.68c0-75.1104 35.0208-150.1696 97.5872-205.2096 9.8816-9.984 12.3904-24.9856 2.4064-35.072-9.984-10.0352-25.0368-12.4928-35.0208-2.4576C247.296 488.96 204.8 576.512 204.8 666.624c0 217.7536 220.2624 217.7536 325.3248 217.7536 105.1136 0 325.376 0 325.376-217.7536 2.5088-120.1152-75.0592-232.8064-187.6992-290.304z" fill="#666666" p-id="30841"></path><path d="M632.7808 498.9952a24.2176 24.2176 0 0 0 0-35.0208 24.2176 24.2176 0 0 0-35.072 0l-62.5664 60.0576L472.576 463.9744a24.2176 24.2176 0 0 0-35.0208 0 24.2176 24.2176 0 0 0 0 35.072l70.0928 67.584v15.0016h-50.0736c-15.0528 0-25.0368 10.0352-25.0368 25.0368s10.0352 25.0368 25.0368 25.0368h50.0736v25.0368h-50.0736c-15.0528 0-25.0368 9.984-25.0368 24.9856 0 15.0528 10.0352 25.088 25.0368 25.088h50.0736v52.48c0 15.0528 9.984 25.0368 24.9856 25.0368s25.0368-10.0352 25.0368-25.0368v-52.5312h50.0224c15.0528 0 25.088-10.0352 25.088-25.088 0-14.9504-10.0352-24.9856-25.088-24.9856h-50.0224v-25.0368h50.0224c15.0528 0 25.088-9.984 25.088-25.0368 0-15.0016-10.0352-24.9856-25.088-24.9856h-50.0224v-10.0352l75.1104-72.6016z" fill="#666666" p-id="30842"></path></svg>