<?xml version="1.0" standalone="no"?><!DOCTYPE svg PUBLIC "-//W3C//DTD SVG 1.1//EN" "http://www.w3.org/Graphics/SVG/1.1/DTD/svg11.dtd"><svg t="1756994569179" class="icon" viewBox="0 0 1024 1024" version="1.1" xmlns="http://www.w3.org/2000/svg" p-id="25869" xmlns:xlink="http://www.w3.org/1999/xlink" width="256" height="256"><path d="M 977.781 224.148 h -0.26714 l -124.482 -83.7859 c 0.206349 -2.46215 0.316244 -4.95059 0.316244 -7.46534 c 0 -48.8647 -39.6193 -88.4851 -88.4846 -88.4851 c -48.8665 0 -88.4846 39.6201 -88.4846 88.4851 c 0 48.867 39.6182 88.4851 88.4846 88.4851 c 19.8025 0 38.0849 -6.50725 52.8297 -17.4987 l 88.1935 59.3166 v 522.309 L 799.99 872.556 l 45.9706 55.9518 l 131.819 -108.358 l -0.0900209 -0.110481 h 0.0900209 V 224.148 Z m -212.918 -47.0075 c -24.4548 0 -44.2433 -19.7884 -44.2433 -44.2433 c 0 -24.453 19.7877 -44.2426 44.2433 -44.2426 c 24.453 0 44.2433 19.7894 44.2433 44.2426 c -0.00058512 24.4548 -19.7894 44.2433 -44.2433 44.2433 Z M 297.376 795.906 c -23.2233 0 -44.605 7.88331 -61.6226 21.1148 l -105.497 -70.9543 v -523.106 l 104.471 -85.9068 l -45.9687 -55.9085 l -131.778 108.361 l 0.060794 0.0748231 h -0.060794 v 594.51 h 0.120418 l 141.268 95.0416 a 101.172 101.172 0 0 0 -1.48242 17.2643 c 0 55.4953 44.9956 100.489 100.489 100.489 c 55.4964 0 100.49 -44.9949 100.49 -100.489 c -0.00058512 -55.4953 -44.9938 -100.49 -100.49 -100.49 Z m 0 150.734 c -27.7705 0 -50.2447 -22.4709 -50.2447 -50.2443 c 0 -27.7723 22.4745 -50.2447 50.2447 -50.2447 c 27.7728 0 50.2447 22.4727 50.2447 50.2447 c -0.00058512 27.7733 -22.472 50.2443 -50.2447 50.2443 Z M 408.223 676.46 h 46.1797 l 187.049 -345.868 h -46.662 l -186.566 345.868 Z m -78.5051 -217.767 c 6.54526 13.5733 16.5441 23.9738 30.0361 31.2812 c 13.453 7.26893 29.395 10.9236 47.8265 10.9236 c 27.0649 0 48.4281 -7.75002 64.0491 -23.2114 c 15.5802 -15.4597 23.4115 -36.1402 23.4115 -62.0406 c 0 -25.7812 -7.83129 -46.3809 -23.4115 -61.8412 c -15.6215 -15.4597 -36.9849 -23.2109 -64.0491 -23.2109 c -18.4321 0 -34.3741 3.65465 -47.8265 10.9628 c -13.4928 7.26835 -23.4915 17.709 -30.0361 31.2415 c -6.54585 13.5325 -9.83863 27.8284 -9.83863 42.8466 c 0 15.1796 3.2928 29.5161 9.83863 43.0483 Z m 61.0772 -82.3609 c 3.81481 -5.30075 9.39615 -7.95113 16.7855 -7.95113 c 7.34843 0 12.8497 2.65038 16.5441 7.95113 c 5.90341 8.39246 8.83497 21.6437 8.83497 39.7545 c 0 18.2708 -2.93154 31.5221 -8.83497 39.7545 c -3.69379 5.46208 -9.19564 8.1522 -16.5441 8.1522 c -7.38935 0 -12.9707 -2.69011 -16.7855 -8.1522 c -5.90284 -8.23228 -8.83439 -21.4835 -8.83439 -39.7545 s 2.93154 -31.5227 8.83439 -39.7545 Z m 172.271 257.403 c 6.46459 13.4919 16.4645 23.8926 30.0368 31.2415 c 13.5318 7.38878 29.4347 11.0429 47.7055 11.0429 c 27.2268 0 48.67 -7.7506 64.2508 -23.2909 c 15.6205 -15.5405 23.4108 -36.1803 23.4108 -61.9617 c 0 -25.7392 -7.79037 -46.3798 -23.4108 -61.9201 c -15.5807 -15.5409 -37.024 -23.3313 -64.2508 -23.3313 c -18.2708 0 -34.1737 3.6944 -47.7055 11.0429 c -13.5721 7.38878 -23.5722 17.7904 -30.0368 31.2825 c -6.5055 13.453 -9.71764 27.7879 -9.71764 42.9267 c 0 15.1796 3.21213 29.5161 9.71764 42.9677 Z m 61.1579 -82.2806 c 3.6944 -5.42058 9.19504 -8.15162 16.5844 -8.15162 c 7.34843 0 12.9303 2.64979 16.7855 7.9517 c 5.86308 8.39246 8.83321 21.7237 8.83321 39.9562 c 0 18.2708 -2.97012 31.5221 -8.83321 39.7545 c -3.85514 5.29956 -9.43705 7.95113 -16.7855 7.95113 c -7.38935 0 -12.89 -2.65095 -16.5844 -7.95113 c -5.90341 -8.23228 -8.83439 -21.4835 -8.83439 -39.7545 c -0.00058512 -18.2322 2.93097 -31.4835 8.83439 -39.7563 Z" p-id="25870"></path></svg>