<?xml version="1.0" standalone="no"?><!DOCTYPE svg PUBLIC "-//W3C//DTD SVG 1.1//EN" "http://www.w3.org/Graphics/SVG/1.1/DTD/svg11.dtd"><svg t="1756993694186" class="icon" viewBox="0 0 1024 1024" version="1.1" xmlns="http://www.w3.org/2000/svg" p-id="14318" xmlns:xlink="http://www.w3.org/1999/xlink" width="256" height="256"><path d="M596.693333 80.170667l45.056 42.666666a170.666667 170.666667 0 0 0 93.610667 45.098667l61.44 8.618667a123.136 123.136 0 0 1 105.6 132.394666l-5.248 61.866667a170.666667 170.666667 0 0 0 23.125333 101.290667l31.573334 53.418666a123.136 123.136 0 0 1-37.674667 165.12l-51.626667 34.432a170.666667 170.666667 0 0 0-64.810666 81.237334l-22.101334 58.026666a123.136 123.136 0 0 1-152.576 73.472l-59.093333-18.901333a170.666667 170.666667 0 0 0-103.936 0l-59.093333 18.901333a123.136 123.136 0 0 1-152.576-73.472l-22.101334-58.026666a170.666667 170.666667 0 0 0-64.768-81.237334l-51.626666-34.432a123.136 123.136 0 0 1-37.717334-165.12l31.573334-53.418666a170.666667 170.666667 0 0 0 23.125333-101.290667L121.6 308.906667a123.136 123.136 0 0 1 105.557333-132.394667l61.482667-8.618667A170.666667 170.666667 0 0 0 382.293333 122.837333l45.056-42.666666a123.136 123.136 0 0 1 169.386667 0zM489.813333 138.965333l-3.84 3.157334-45.056 42.666666A256 256 0 0 1 312.618667 250.453333l-12.117334 1.962667-61.44 8.661333a37.845333 37.845333 0 0 0-32.554666 36.053334l0.128 4.608 5.248 61.866666a256 256 0 0 1-28.714667 141.226667l-5.973333 10.666667-31.573334 53.461333a37.845333 37.845333 0 0 0 7.68 47.701333l3.882667 2.986667 51.626667 34.474667a256 256 0 0 1 92.586666 110.506666l4.608 11.306667 22.101334 58.026667a37.845333 37.845333 0 0 0 42.410666 23.68l4.437334-1.109334 59.136-18.901333a256 256 0 0 1 144.085333-3.456l11.733333 3.413333 59.136 18.944a37.845333 37.845333 0 0 0 44.970667-18.389333l1.877333-4.181333 22.101334-58.026667a256 256 0 0 1 87.125333-114.773333l10.026667-7.04 51.626666-34.474667a37.845333 37.845333 0 0 0 13.824-46.293333l-2.218666-4.394667-31.573334-53.461333a256 256 0 0 1-35.413333-139.690667l0.725333-12.245333 5.248-61.866667a37.845333 37.845333 0 0 0-27.904-39.722667l-4.522666-0.896-61.44-8.661333a256 256 0 0 1-131.328-59.392l-9.088-8.192-45.098667-42.666667a37.845333 37.845333 0 0 0-48.213333-3.2z m219.648 428.629334a106.666667 106.666667 0 1 1-153.472 148.224 106.666667 106.666667 0 0 1 153.472-148.224z m-39.338666-197.290667a32 32 0 0 1-0.768 45.226667l-291.584 281.6a32 32 0 0 1-44.458667-46.037334l291.584-281.6a32 32 0 0 1 45.226667 0.853334z m-72.96 234.581333a51.2 51.2 0 1 0 71.125333 73.642667 51.2 51.2 0 0 0-71.125333-73.642667z m-115.114667-273.664a106.666667 106.666667 0 1 1-153.429333 148.224 106.666667 106.666667 0 0 1 153.429333-148.224z m-112.298667 37.290667a51.2 51.2 0 1 0 71.168 73.642667 51.2 51.2 0 0 0-71.168-73.642667z" fill="#0D0D0D" p-id="14319"></path></svg>