<?xml version="1.0" standalone="no"?><!DOCTYPE svg PUBLIC "-//W3C//DTD SVG 1.1//EN" "http://www.w3.org/Graphics/SVG/1.1/DTD/svg11.dtd"><svg t="1756994550473" class="icon" viewBox="0 0 1024 1024" version="1.1" xmlns="http://www.w3.org/2000/svg" p-id="24857" xmlns:xlink="http://www.w3.org/1999/xlink" width="256" height="256"><path d="M895.643 556.509L726.406 725.75l-56.416-56.413-56.413-56.412L500.753 725.75l-56.413-56.413 112.825-112.824v-0.004l56.412-56.413 112.825 112.829 112.829-112.83 56.412 56.414z m-448.47-46.732c-88.121 0-159.56-71.435-159.56-159.56 0-88.12 71.439-159.56 159.56-159.56 88.125 0 159.56 71.44 159.56 159.56 0 88.126-71.435 159.56-159.56 159.56z m-59.249 159.56l112.829 112.825 112.824-112.825h0.005-0.005l112.83 112.825 29.586-29.587c6.09 24.573 10.3 49.859 10.3 76.321H128.058c0-176.246 142.87-319.119 319.115-319.119 30.487 0 59.87 4.536 87.793 12.522L387.924 669.337z" p-id="24858"></path></svg>