<?xml version="1.0" standalone="no"?><!DOCTYPE svg PUBLIC "-//W3C//DTD SVG 1.1//EN" "http://www.w3.org/Graphics/SVG/1.1/DTD/svg11.dtd"><svg t="1756993140531" class="icon" viewBox="0 0 1024 1024" version="1.1" xmlns="http://www.w3.org/2000/svg" p-id="8918" xmlns:xlink="http://www.w3.org/1999/xlink" width="200" height="200"><path d="M555.008 297.642667l-47.786667 418.474666 68.949334-27.306666 48.469333-419.157334-69.632 27.989334z m326.314667-165.888c-13.653333-5.461333-28.672-2.048-39.594667 8.192-6.826667 6.826667-10.922667 15.701333-10.922667 25.258666 0 9.557333 3.413333 18.432 10.24 25.258667s15.701333 10.922667 25.258667 10.922667c4.778667 0 9.557333-0.682667 14.336-2.730667 13.653333-5.461333 23.210667-18.432 23.210667-33.450667 0-14.336-8.874667-27.306667-22.528-33.450666z m107.178666 410.965333l-451.242666 452.608c-18.432 18.432-43.008 28.672-68.266667 28.672-25.941333 0-50.517333-10.24-68.266667-27.989333L28.672 628.736C10.24 610.986667 0 586.410667 0 561.152c0-25.941333 10.24-49.834667 27.989333-68.266667L479.914667 40.277333C499.712 20.48 518.144 15.018667 827.392 4.778667c21.162667-0.682667 42.325333-1.365333 62.805333-2.730667 35.498667-2.730667 71.68 10.24 97.621334 35.498667 25.941333 25.941333 38.912 60.757333 36.181333 96.938666-0.682667 10.24-0.682667 36.181333 0 68.266667 1.365333 236.885333-6.144 309.930667-35.498667 339.968z m-30.72-411.648c1.365333-17.749333-4.096-34.133333-16.384-45.738667-12.288-11.605333-29.354667-17.749333-45.738666-16.384h-2.730667c-20.48 0.682667-42.325333 2.048-64.170667 2.730667-137.216 4.096-280.576 10.24-304.469333 18.432L75.093333 539.306667c-5.461333 5.461333-8.874667 12.970667-8.874666 21.162666s3.413333 15.701333 8.874666 21.162667L446.464 948.906667c5.461333 5.461333 12.970667 8.192 21.845333 8.192 8.192 0 16.384-3.413333 21.845334-8.874667l451.242666-452.608c18.432-22.528 17.066667-211.626667 16.384-292.864-0.682667-33.450667-0.682667-59.392 0-71.68z m-170.666666 378.197333c-22.528-54.613333-62.122667-71.68-117.418667-50.517333-53.248 23.210667-70.314667 63.488-50.517333 119.466667 16.384 36.864 40.96 55.296 74.410666 55.296 12.970667 0 26.624-2.730667 42.325334-8.192 53.248-23.210667 70.997333-62.122667 51.2-116.053334z m-67.584 73.045334c-7.509333 2.730667-14.336 4.096-20.48 4.096-16.384 0-29.354667-9.557333-37.546667-27.989334-9.557333-26.624-0.682667-46.421333 24.576-58.026666 27.306667-10.24 46.421333-2.048 58.026667 23.893333 10.24 27.989333 2.048 47.104-24.576 58.026667zM513.365333 408.917333c-22.528-52.565333-62.122667-68.949333-117.418666-48.469333-52.565333 23.210667-69.632 62.805333-50.517334 117.418667 16.384 37.546667 42.325333 56.661333 75.776 56.661333 12.970667 0 26.624-2.730667 41.642667-8.192 54.613333-22.528 71.68-62.122667 50.517333-117.418667z m-66.901333 75.093334c-7.509333 2.730667-14.336 4.096-20.48 4.096-16.384 0-29.354667-9.557333-37.546667-27.989334-9.557333-26.624-0.682667-46.421333 24.576-58.026666 27.306667-10.24 46.421333-2.048 58.026667 23.893333 10.24 27.306667 2.048 47.104-24.576 58.026667z" p-id="8919"></path></svg>