<?xml version="1.0" standalone="no"?><!DOCTYPE svg PUBLIC "-//W3C//DTD SVG 1.1//EN" "http://www.w3.org/Graphics/SVG/1.1/DTD/svg11.dtd"><svg t="1756993325070" class="icon" viewBox="0 0 1024 1024" version="1.1" xmlns="http://www.w3.org/2000/svg" p-id="13170" xmlns:xlink="http://www.w3.org/1999/xlink" width="256" height="256"><path d="M472.9662596 102.08556556a62.01356137 62.01356137 0 0 0-87.20601603-9.39168988l-41.93416231 33.83849051a5.80544953 5.80544953 0 0 1-7.03045328 0.07101432l-43.24793458-33.90950483a61.99580718 61.99580718 0 0 0-76.5715682 97.50314279l59.49254071 46.74540764a56.38564886 56.38564886 0 0 0 63.59363798 4.01232874 56.24361901 56.24361901 0 0 0 64.57008916-4.10109725l58.92442248-47.49106169a62.19109839 62.19109839 0 0 0 9.40944407-87.27703035zM739.78613183 587.41757998H550.6385559a12.87140876 12.87140876 0 0 0-12.87140875 12.87140996v259.78941896c0 12.62285741 10.22611244 22.84896985 22.84896983 22.84897105h179.17001485V587.41757998z m229.85673691 0H782.67899358v295.47429281h186.96387516a12.88916294 12.88916294 0 0 0 12.83590159-12.90691713V600.21797441a12.88916294 12.88916294 0 0 0-12.83590159-12.80039443z m45.25409834-42.16496068H507.0177943c-0.37282702 0-0.60362418-0.21304419-0.60362418-0.5858712v-104.67562474c0-0.17753702 0.19528999-0.35507283 0.37282701-0.35507283h508.12772413c0.17753702 0 0.37282702 0.15978284 0.37282702 0.35507283v104.94193027c0 0.21304419-0.21304419 0.31956567-0.3905812 0.31956567z" p-id="13171"></path><path d="M861.39875662 394.79028516A46.76316061 46.76316061 0 0 0 795.65692504 387.72432592l-31.61928257 25.47651319a4.26088007 4.26088007 0 0 1-5.27283966 0.05326135L726.16906904 387.72432592a46.78091481 46.78091481 0 0 0-65.63531009 7.86487463 46.81642196 46.81642196 0 0 0 7.93589015 65.63531011l44.82801118 35.22327589c14.22068819 11.16705648 33.21711214 11.71742052 47.91714884 3.01812455a42.5377877 42.5377877 0 0 0 48.68055708-3.05363171l44.41967699-35.82690129a46.92294346 46.92294346 0 0 0 7.08371343-65.79509294zM599.65643284 357.59635146H60.67283437a17.0790287 17.0790287 0 0 0-17.07902869 17.07902869v344.7229657c0 16.70620167 13.58155564 30.30551028 30.32326447 30.30551149h237.68610437v-0.07101432h288.03550413c18.78338097 0 34.01602753-7.63407747 34.01602753-17.09678289V374.58661164c-0.12427568-9.39168988-15.23264656-16.99026019-33.99827334-16.99026018z m-207.82443422 175.31746895c8.50400719 0.78116121 13.13771429 5.04204129 13.9188755 12.76488727-0.78116121 7.74059895-5.41486831 12.00147903-13.9188755 12.76488726h-42.91061471v19.68881785h42.91061471c8.50400719 0.78116121 13.13771429 5.04204129 13.9188755 12.76488606-0.78116121 7.74059895-5.41486831 12.00147903-13.9188755 12.76488727h-42.91061471v35.93342399c-0.76340823 13.15546726-8.11342597 19.70657083-22.03230149 19.70657083s-21.26889445-6.55110356-22.03230267-19.70657083v-35.93342399h-42.91061472c-8.52176016-0.76340823-13.15546726-5.02428831-13.9188755-12.76488727 0.76340823-7.72284598 5.39711534-11.98372606 13.9188755-12.76488606h42.91061472v-19.68881785h-42.91061472c-8.52176016-0.76340823-13.15546726-5.02428831-13.9188755-12.76488726 0.76340823-7.72284598 5.39711534-11.98372606 13.9188755-12.76488727h24.34027914l-37.10516642-52.17802893a19.93736921 19.93736921 0 0 1-4.63370709-12.7471343c1.54456944-13.13771429 8.87683421-20.46997906 22.03230146-22.03230146 7.72284598 0.76340823 13.51054131 3.87030009 17.38084141 9.26741542l42.91061471 61.44544312 42.91061472-61.44544312c3.8525459-5.39711534 9.65799541-8.50400719 17.3808414-9.26741542 13.13771429 1.54456944 20.46997906 8.89458719 22.03230147 22.03230146 0 4.6337071-1.56232241 8.89458719-4.63370711 12.7471343l-37.10516641 52.17802893h24.37578631zM676.70735076 161.59586046H2.49406472c-0.24855135 0-0.4971027 0.23079716-0.4971027 0.47934851v138.78042078c0 0.4971027 0.33731986 0.83442256 0.81666959 0.83442255h673.87596496c0.21304419 0 0.47934851-0.17753702 0.47934973-0.40833418V162.07520897c0.01775419-0.24855135-0.26630554-0.47934851-0.46159554-0.47934851z" p-id="13172"></path></svg>