<?xml version="1.0" standalone="no"?><!DOCTYPE svg PUBLIC "-//W3C//DTD SVG 1.1//EN" "http://www.w3.org/Graphics/SVG/1.1/DTD/svg11.dtd"><svg t="1756993800088" class="icon" viewBox="0 0 1024 1024" version="1.1" xmlns="http://www.w3.org/2000/svg" p-id="15380" xmlns:xlink="http://www.w3.org/1999/xlink" width="256" height="256"><path d="M568.32 392.96a47.36 47.36 0 0 0-48.96-45.76 45.76 45.76 0 1 0 0 91.2 47.36 47.36 0 0 0 48.96-45.76z m170.56 192V215.04c0-48.64-23.36-87.04-52.48-87.04h-348.8c-29.12 0-52.48 38.4-52.48 87.04v368.64H152A24 24 0 0 0 128 608v264.96a24 24 0 0 0 24 24h185.28V272.96a24 24 0 0 1 24-24h301.12a24 24 0 0 1 24 24V896h185.28a24 24 0 0 0 24-24V608a24 24 0 0 0-24-24h-132.8z m-218.24-352a43.52 43.52 0 1 1 43.52-43.52 43.52 43.52 0 0 1-43.52 43.52z m62.08 222.08h-147.2a27.2 27.2 0 0 0-28.16 15.36V608a14.72 14.72 0 0 0 15.36 14.08s16.64 0 16.64-14.72v-83.2s9.28-18.88 16 0v295.36a14.4 14.4 0 0 0 15.36 15.04h16.64a15.36 15.36 0 0 0 15.68-15.36v-137.28a8.64 8.64 0 0 1 8.96-7.68s7.36 2.88 7.36 8v137.92a14.4 14.4 0 0 0 16 13.76h16.32s16 0 16-13.76v-297.92s5.76-17.6 16 0v84.48s-3.84 14.72 16.64 14.72a13.44 13.44 0 0 0 14.72-14.08v-138.56a36.16 36.16 0 0 0-32-15.36z m0 0" fill="#666666" p-id="15381"></path></svg>