<?xml version="1.0" standalone="no"?><!DOCTYPE svg PUBLIC "-//W3C//DTD SVG 1.1//EN" "http://www.w3.org/Graphics/SVG/1.1/DTD/svg11.dtd"><svg t="1758507085687" class="icon" viewBox="0 0 1024 1024" version="1.1" xmlns="http://www.w3.org/2000/svg" p-id="3995" xmlns:xlink="http://www.w3.org/1999/xlink" width="200" height="200"><path d="M501.76 421.376a43.008 43.008 0 0 0 16.384 10.752 54.272 54.272 0 0 0 19.968 4.096 51.2 51.2 0 0 0 19.968-4.096 47.616 47.616 0 0 0 16.384-10.752 51.2 51.2 0 0 0 10.752-16.384 51.2 51.2 0 0 0 0-39.424 57.344 57.344 0 0 0-10.752-16.384 56.832 56.832 0 0 0-16.384-10.752 53.76 53.76 0 0 0-19.968-4.096 55.808 55.808 0 0 0-20.48 4.096 51.2 51.2 0 0 0-16.384 10.752 47.616 47.616 0 0 0-10.752 16.384 51.2 51.2 0 0 0 0 39.424 43.008 43.008 0 0 0 11.264 16.384zM585.728 482.304a58.368 58.368 0 0 0-10.752-16.384 57.856 57.856 0 0 0-16.384-10.752 54.272 54.272 0 0 0-19.968-4.096 51.2 51.2 0 0 0-18.432 3.072 47.104 47.104 0 0 0-15.872 9.728 51.2 51.2 0 0 0-11.776 14.336 51.2 51.2 0 0 0-5.632 18.432v109.056l102.4-102.4a54.784 54.784 0 0 0-3.584-20.992z" fill="#2c2c2c" p-id="3996"></path><path d="M358.4 797.696a70.144 70.144 0 0 0 23.04 16.384A87.04 87.04 0 0 0 409.6 819.2h116.224l5.632-4.608L629.248 716.8l38.912-38.4 37.376-36.864 31.744-31.232 23.04-23.04 8.704-7.68a23.04 23.04 0 0 1 14.336-3.584h89.088a75.264 75.264 0 0 0 28.16-7.168 70.144 70.144 0 0 0 23.04-16.384 73.728 73.728 0 0 0 15.36-24.064 78.336 78.336 0 0 0 5.632-29.696 71.68 71.68 0 0 0-5.632-27.648 70.656 70.656 0 0 0-15.36-23.04 94.208 94.208 0 0 0-23.04-16.384 88.576 88.576 0 0 0-28.672-7.168h-143.36a51.2 51.2 0 0 0-15.36 0 14.848 14.848 0 0 0-9.728 6.144l-25.088 30.208-39.936 39.936-45.568 45.568-45.568 45.568-39.936 39.936-28.16 27.648a45.568 45.568 0 0 1-10.752 8.192 19.968 19.968 0 0 1-8.704 0H409.6a86.528 86.528 0 0 0-27.648 7.168 83.456 83.456 0 0 0-23.04 16.384 80.384 80.384 0 0 0-16.384 23.04 72.704 72.704 0 0 0 0 58.368 80.384 80.384 0 0 0 15.872 25.088z m5.632-71.168a41.472 41.472 0 0 1 10.752-15.36 51.2 51.2 0 0 1 16.384-10.752 55.296 55.296 0 0 1 19.968-4.096h55.808a12.8 12.8 0 0 0 6.144 0h8.192l95.744-95.744 38.4-38.4 36.864-36.864 31.232-31.744 26.112-32.768a22.528 22.528 0 0 1 12.288-6.656 58.368 58.368 0 0 1 16.384 0h128a53.76 53.76 0 0 1 19.968 4.096 58.368 58.368 0 0 1 16.384 10.752 51.2 51.2 0 0 1 10.752 15.36 51.2 51.2 0 0 1 4.096 18.432 55.808 55.808 0 0 1-4.096 20.48 51.2 51.2 0 0 1-10.752 16.384 51.2 51.2 0 0 1-16.384 10.752 54.784 54.784 0 0 1-20.48 4.096h-94.208a23.04 23.04 0 0 0-13.824 3.072l-8.192 7.168-28.672 28.16-40.96 40.448-46.592 46.08-46.592 45.568-40.448 39.424-27.136 27.136a16.384 16.384 0 0 1-10.752 7.168H413.184a54.784 54.784 0 0 1-20.48-4.096 51.2 51.2 0 0 1-27.136-26.624 54.272 54.272 0 0 1-4.096-19.968 51.2 51.2 0 0 1 4.096-21.504z" fill="#2c2c2c" p-id="3997"></path><path d="M0 0v1024h1024V0z m972.8 972.8H51.2V204.8h921.6z m0-819.2H51.2V51.2h921.6z" fill="#2c2c2c" p-id="3998"></path><path d="M102.4 460.8h153.6v102.4H102.4zM102.4 307.2h153.6v102.4H102.4zM102.4 614.4h153.6v102.4H102.4zM102.4 768h153.6v102.4H102.4z" fill="#2c2c2c" p-id="3999"></path></svg>