<?xml version="1.0" standalone="no"?><!DOCTYPE svg PUBLIC "-//W3C//DTD SVG 1.1//EN" "http://www.w3.org/Graphics/SVG/1.1/DTD/svg11.dtd"><svg t="1756993248080" class="icon" viewBox="0 0 1024 1024" version="1.1" xmlns="http://www.w3.org/2000/svg" p-id="11135" width="256" height="256" xmlns:xlink="http://www.w3.org/1999/xlink"><path d="M234.666667 0v1024h-213.333334V0h213.333334z m256 0v1024h-213.333334V0h213.333334z m256 0v1024h-213.333334V0h213.333334z m256 0v1024h-213.333334V0h213.333334z" fill="#E0DEFC" p-id="11136"></path><path d="M234.666667 426.666667v597.333333h-213.333334V426.666667h213.333334z m256-213.333334v810.666667h-213.333334V213.333333h213.333334z m256 298.666667v512h-213.333334V512h213.333334z m256-170.666667v682.666667h-213.333334V341.333333h213.333334z" fill="#D1CEFA" p-id="11137"></path><path d="M234.666667 682.666667v341.333333h-213.333334v-341.333333h213.333334z m256-298.666667v640h-213.333334V384h213.333334z m256 426.666667v213.333333h-213.333334v-213.333333h213.333334z m256-384v597.333333h-213.333334V426.666667h213.333334z" fill="#B7B4E8" p-id="11138"></path><path d="M169.130667 42.666667L100.693333 169.301333h-13.824L155.136 42.666667h13.994667z m256 0L356.693333 169.301333h-13.824L411.136 42.666667h13.994667z m256 0L612.693333 169.301333h-13.824L667.136 42.666667h13.994667z m256 0L868.693333 169.301333h-13.824L923.136 42.666667h13.994667zM172.032 100.181333c9.386667 0 16.554667 3.242667 21.674667 10.069334 4.437333 5.802667 6.826667 13.653333 6.826666 23.381333a38.4 38.4 0 0 1-6.826666 23.381333 26.069333 26.069333 0 0 1-21.674667 9.898667 26.538667 26.538667 0 0 1-22.016-9.898667c-4.608-6.144-6.826667-13.824-6.826667-23.381333 0-9.728 2.218667-17.578667 6.826667-23.381333 5.12-6.826667 12.458667-10.069333 22.016-10.069334z m256 0c9.386667 0 16.554667 3.242667 21.674667 10.069334 4.437333 5.802667 6.826667 13.653333 6.826666 23.381333a38.4 38.4 0 0 1-6.826666 23.381333 26.069333 26.069333 0 0 1-21.674667 9.898667 26.538667 26.538667 0 0 1-22.016-9.898667c-4.608-6.144-6.826667-13.824-6.826667-23.381333 0-9.728 2.218667-17.578667 6.826667-23.381333 5.12-6.826667 12.458667-10.069333 22.016-10.069334z m256 0c9.386667 0 16.554667 3.242667 21.674667 10.069334 4.437333 5.802667 6.826667 13.653333 6.826666 23.381333a38.4 38.4 0 0 1-6.826666 23.381333 26.069333 26.069333 0 0 1-21.674667 9.898667 26.538667 26.538667 0 0 1-22.016-9.898667c-4.608-6.144-6.826667-13.824-6.826667-23.381333 0-9.728 2.218667-17.578667 6.826667-23.381333 5.12-6.826667 12.458667-10.069333 22.016-10.069334z m256 0c9.386667 0 16.554667 3.242667 21.674667 10.069334 4.437333 5.802667 6.826667 13.653333 6.826666 23.381333a38.4 38.4 0 0 1-6.826666 23.381333 26.069333 26.069333 0 0 1-21.674667 9.898667 26.538667 26.538667 0 0 1-22.016-9.898667c-4.608-6.144-6.826667-13.824-6.826667-23.381333 0-9.728 2.218667-17.578667 6.826667-23.381333 5.12-6.826667 12.458667-10.069333 22.016-10.069334z m-768 11.776c-4.437333 0-7.68 2.218667-9.728 6.656a39.253333 39.253333 0 0 0-2.218667 15.018667c0 6.144 0.682667 11.093333 2.218667 14.848 2.048 4.437333 5.290667 6.656 9.728 6.656 4.266667 0 7.338667-2.389333 9.386667-6.997333a41.088 41.088 0 0 0 2.218666-14.506667 38.442667 38.442667 0 0 0-2.389333-14.848c-1.877333-4.608-4.949333-6.826667-9.216-6.826667z m256 0c-4.437333 0-7.68 2.218667-9.728 6.656a39.253333 39.253333 0 0 0-2.218667 15.018667c0 6.144 0.682667 11.093333 2.218667 14.848 2.048 4.437333 5.290667 6.656 9.728 6.656 4.266667 0 7.338667-2.389333 9.386667-6.997333a41.088 41.088 0 0 0 2.218666-14.506667 38.442667 38.442667 0 0 0-2.389333-14.848c-1.877333-4.608-4.949333-6.826667-9.216-6.826667z m256 0c-4.437333 0-7.68 2.218667-9.728 6.656a39.253333 39.253333 0 0 0-2.218667 15.018667c0 6.144 0.682667 11.093333 2.218667 14.848 2.048 4.437333 5.290667 6.656 9.728 6.656 4.266667 0 7.338667-2.389333 9.386667-6.997333a41.088 41.088 0 0 0 2.218666-14.506667 38.442667 38.442667 0 0 0-2.389333-14.848c-1.877333-4.608-4.949333-6.826667-9.216-6.826667z m256 0c-4.437333 0-7.68 2.218667-9.728 6.656a39.253333 39.253333 0 0 0-2.218667 15.018667c0 6.144 0.682667 11.093333 2.218667 14.848 2.048 4.437333 5.290667 6.656 9.728 6.656 4.266667 0 7.338667-2.389333 9.386667-6.997333a41.088 41.088 0 0 0 2.218666-14.506667 38.442667 38.442667 0 0 0-2.389333-14.848c-1.877333-4.608-4.949333-6.826667-9.216-6.826667zM84.309333 45.056c9.386667 0 16.554667 3.242667 21.674667 10.069333 4.437333 5.802667 6.826667 13.653333 6.826667 23.381334a38.4 38.4 0 0 1-6.826667 23.381333 26.069333 26.069333 0 0 1-21.674667 9.898667 26.538667 26.538667 0 0 1-22.016-9.898667c-4.608-6.144-6.826667-13.824-6.826666-23.381333 0-9.728 2.218667-17.578667 6.826666-23.381334 5.12-6.826667 12.458667-10.069333 22.016-10.069333z m256 0c9.386667 0 16.554667 3.242667 21.674667 10.069333 4.437333 5.802667 6.826667 13.653333 6.826667 23.381334a38.4 38.4 0 0 1-6.826667 23.381333 26.069333 26.069333 0 0 1-21.674667 9.898667 26.538667 26.538667 0 0 1-22.016-9.898667c-4.608-6.144-6.826667-13.824-6.826666-23.381333 0-9.728 2.218667-17.578667 6.826666-23.381334 5.12-6.826667 12.458667-10.069333 22.016-10.069333z m256 0c9.386667 0 16.554667 3.242667 21.674667 10.069333 4.437333 5.802667 6.826667 13.653333 6.826667 23.381334a38.4 38.4 0 0 1-6.826667 23.381333 26.069333 26.069333 0 0 1-21.674667 9.898667 26.538667 26.538667 0 0 1-22.016-9.898667c-4.608-6.144-6.826667-13.824-6.826666-23.381333 0-9.728 2.218667-17.578667 6.826666-23.381334 5.12-6.826667 12.458667-10.069333 22.016-10.069333z m256 0c9.386667 0 16.554667 3.242667 21.674667 10.069333 4.437333 5.802667 6.826667 13.653333 6.826667 23.381334a38.4 38.4 0 0 1-6.826667 23.381333 26.069333 26.069333 0 0 1-21.674667 9.898667 26.538667 26.538667 0 0 1-22.016-9.898667c-4.608-6.144-6.826667-13.824-6.826666-23.381333 0-9.728 2.218667-17.578667 6.826666-23.381334 5.12-6.826667 12.458667-10.069333 22.016-10.069333z m-768 11.776c-4.437333 0-7.68 2.218667-9.728 6.656a39.253333 39.253333 0 0 0-2.218666 15.018667c0 6.144 0.682667 11.093333 2.218666 14.848 2.048 4.437333 5.290667 6.656 9.728 6.656 4.266667 0 7.338667-2.389333 9.386667-6.997334a41.088 41.088 0 0 0 2.218667-14.506666 38.442667 38.442667 0 0 0-2.389334-14.848c-1.877333-4.608-4.949333-6.826667-9.216-6.826667z m256 0c-4.437333 0-7.68 2.218667-9.728 6.656a39.253333 39.253333 0 0 0-2.218666 15.018667c0 6.144 0.682667 11.093333 2.218666 14.848 2.048 4.437333 5.290667 6.656 9.728 6.656 4.266667 0 7.338667-2.389333 9.386667-6.997334a41.088 41.088 0 0 0 2.218667-14.506666 38.442667 38.442667 0 0 0-2.389334-14.848c-1.877333-4.608-4.949333-6.826667-9.216-6.826667z m256 0c-4.437333 0-7.68 2.218667-9.728 6.656a39.253333 39.253333 0 0 0-2.218666 15.018667c0 6.144 0.682667 11.093333 2.218666 14.848 2.048 4.437333 5.290667 6.656 9.728 6.656 4.266667 0 7.338667-2.389333 9.386667-6.997334a41.088 41.088 0 0 0 2.218667-14.506666 38.442667 38.442667 0 0 0-2.389334-14.848c-1.877333-4.608-4.949333-6.826667-9.216-6.826667z m256 0c-4.437333 0-7.68 2.218667-9.728 6.656a39.253333 39.253333 0 0 0-2.218666 15.018667c0 6.144 0.682667 11.093333 2.218666 14.848 2.048 4.437333 5.290667 6.656 9.728 6.656 4.266667 0 7.338667-2.389333 9.386667-6.997334a41.088 41.088 0 0 0 2.218667-14.506666 38.442667 38.442667 0 0 0-2.389334-14.848c-1.877333-4.608-4.949333-6.826667-9.216-6.826667z" fill="#FFFFFF" p-id="11139"></path></svg>